<?xml version="1.0" encoding="UTF-8" standalone="no"?>
<!-- Created with Inkscape (http://www.inkscape.org/) -->

<svg
   width="149mm"
   height="13mm"
   viewBox="0 0 149 13"
   version="1.1"
   id="svg5"
   xml:space="preserve"
   inkscape:version="1.2.2 (732a01da63, 2022-12-09)"
   sodipodi:docname="Logo.svg"
   xmlns:inkscape="http://www.inkscape.org/namespaces/inkscape"
   xmlns:sodipodi="http://sodipodi.sourceforge.net/DTD/sodipodi-0.dtd"
   xmlns="http://www.w3.org/2000/svg"
   xmlns:svg="http://www.w3.org/2000/svg"><sodipodi:namedview
     id="namedview7"
     pagecolor="#ffffff"
     bordercolor="#000000"
     borderopacity="0.25"
     inkscape:showpageshadow="2"
     inkscape:pageopacity="0.0"
     inkscape:pagecheckerboard="0"
     inkscape:deskcolor="#d1d1d1"
     inkscape:document-units="mm"
     showgrid="false"
     showguides="true"
     inkscape:zoom="1.4503086"
     inkscape:cx="346.47797"
     inkscape:cy="84.809534"
     inkscape:window-width="1920"
     inkscape:window-height="1017"
     inkscape:window-x="-8"
     inkscape:window-y="-8"
     inkscape:window-maximized="1"
     inkscape:current-layer="layer1" /><defs
     id="defs2" /><g
     inkscape:label="Layer 1"
     inkscape:groupmode="layer"
     id="layer1"><g
       id="g1059"
       transform="matrix(1.8492698,0,0,1.8492698,-163.01593,-161.12226)"><g
         id="g939"
         transform="matrix(0.22848357,0,0,0.22848357,62.771475,70.569554)"
         style="fill:#000000;fill-opacity:1"><path
           style="fill:#000000;fill-opacity:1;stroke-width:0.182432"
           d="m 113.34907,91.012959 c 0.2892,-4.017986 1.61212,-6.84915 4.5935,-9.830527 3.50443,-3.504436 7.82339,-5.374429 14.77702,-6.398054 2.20083,-0.32398 8.48311,-0.570897 8.48311,-0.33342 0,0.279471 -2.94958,3.878138 -4.94948,6.038662 -4.29365,4.638514 -8.5505,7.966149 -12.7875,9.996178 -3.07809,1.474774 -4.83469,1.937866 -7.78703,2.052907 l -2.44631,0.09532 z"
           id="path933" /><path
           style="fill:#000000;fill-opacity:1;stroke-width:0.182432"
           d="m 121.31757,102.16577 c -1.8174,-0.40557 -3.51481,-1.13107 -4.38104,-1.87253 -0.7177,-0.614328 -1.82167,-2.101474 -1.82167,-2.45396 0,-0.08069 0.37956,-0.146714 0.84345,-0.146714 1.18241,0 4.35489,-1.102256 6.62077,-2.300332 5.46608,-2.890179 10.36141,-7.302312 14.39559,-12.974685 1.16438,-1.637205 3.25913,-5.115737 3.84874,-6.391201 0.24291,-0.525473 0.50182,-0.955402 0.57535,-0.955402 0.22486,0 0.40721,3.792241 0.28036,5.830458 -0.30731,4.93784 -1.58046,9.408764 -3.69079,12.96103 -1.19246,2.007227 -3.27289,4.486347 -4.57358,5.450041 -1.34616,0.997375 -3.58858,2.079725 -5.34718,2.580925 -1.7914,0.51054 -5.08685,0.64352 -6.75,0.27237 z"
           id="path935" /></g><text
         xml:space="preserve"
         style="font-style:normal;font-variant:normal;font-weight:bold;font-stretch:normal;font-size:9.14607px;font-family:'Book Antiqua';-inkscape-font-specification:'Book Antiqua Bold';fill:#000000;fill-opacity:1;stroke-width:0.762173"
         x="96.478462"
         y="93.919235"
         id="text995"><tspan
           sodipodi:role="line"
           id="tspan993"
           style="font-style:normal;font-variant:normal;font-weight:bold;font-stretch:normal;font-family:'Book Antiqua';-inkscape-font-specification:'Book Antiqua Bold';fill:#000000;fill-opacity:1;stroke-width:0.762173"
           x="96.478462"
           y="93.919235">CYPRESS BANK</tspan><tspan
           sodipodi:role="line"
           style="font-style:normal;font-variant:normal;font-weight:bold;font-stretch:normal;font-family:'Book Antiqua';-inkscape-font-specification:'Book Antiqua Bold';fill:#000000;fill-opacity:1;stroke-width:0.762173"
           x="96.478462"
           y="105.35182"
           id="tspan997" /></text></g></g></svg>
