<?xml version="1.0" encoding="UTF-8" standalone="no"?>
<!-- Created with Inkscape (http://www.inkscape.org/) -->

<svg
   width="14mm"
   height="13mm"
   viewBox="0 0 14 13"
   version="1.1"
   id="svg5"
   xml:space="preserve"
   inkscape:version="1.2.2 (732a01da63, 2022-12-09)"
   sodipodi:docname="WhiteLogo.svg"
   xmlns:inkscape="http://www.inkscape.org/namespaces/inkscape"
   xmlns:sodipodi="http://sodipodi.sourceforge.net/DTD/sodipodi-0.dtd"
   xmlns="http://www.w3.org/2000/svg"
   xmlns:svg="http://www.w3.org/2000/svg"><sodipodi:namedview
     id="namedview7"
     pagecolor="#ffffff"
     bordercolor="#000000"
     borderopacity="0.25"
     inkscape:showpageshadow="2"
     inkscape:pageopacity="0.0"
     inkscape:pagecheckerboard="0"
     inkscape:deskcolor="#d1d1d1"
     inkscape:document-units="mm"
     showgrid="false"
     showguides="true"
     inkscape:zoom="2.0510461"
     inkscape:cx="92.391878"
     inkscape:cy="111.40657"
     inkscape:window-width="1350"
     inkscape:window-height="1040"
     inkscape:window-x="3958"
     inkscape:window-y="62"
     inkscape:window-maximized="0"
     inkscape:current-layer="layer1" /><defs
     id="defs2" /><g
     inkscape:label="Layer 1"
     inkscape:groupmode="layer"
     id="layer1"><path
       style="fill:#ffffff;fill-opacity:1;stroke-width:0.243778"
       d="M 3.6560167,30.569723 C 4.3594905,23.429547 5.7932248,19.858877 9.7025323,15.511068 15.499153,9.0642485 22.770455,5.6116279 34.147955,3.9036872 37.280564,3.4334336 47.012259,2.9341341 47.51891,3.2176699 48.268384,3.6370973 40.526805,12.574445 34.738371,17.972298 c -5.205834,4.854563 -9.255047,7.731617 -14.648487,10.408066 -5.184509,2.57277 -7.860848,3.285078 -13.4631697,3.583223 l -3.1244074,0.166274 z"
       id="path1705"
       transform="scale(0.26458333)" /><path
       style="fill:#ffffff;fill-opacity:1;stroke-width:0.243778"
       d="M 17.145118,47.409186 C 13.866459,46.855912 10.444724,45.320783 8.8573405,43.690954 7.6104052,42.410675 6.612969,40.933388 6.7957754,40.6376 6.8717006,40.51475 7.5710568,40.356455 8.3499003,40.285833 11.608006,39.990398 18.097075,37.226496 22.889331,34.093027 29.37032,29.855358 35.635389,23.872254 40.544506,17.23244 c 1.807043,-2.444112 4.923217,-7.4250378 6.593321,-10.5388344 1.165054,-2.172168 1.228039,-2.2426221 1.39833,-1.5641326 0.3592,1.4311692 0.20726,9.640151 -0.233964,12.640461 -1.358389,9.237024 -4.483168,16.221138 -9.991413,22.331554 -4.935606,5.475177 -13.829059,8.545746 -21.165662,7.307698 z"
       id="path1845"
       transform="scale(0.26458333)" /></g></svg>
